<?xml version="1.0" encoding="UTF-8" standalone="no"?>
<!-- Created with Inkscape (http://www.inkscape.org/) -->
<svg xmlns:dc="http://purl.org/dc/elements/1.1/" xmlns:cc="http://creativecommons.org/ns#" xmlns:rdf="http://www.w3.org/1999/02/22-rdf-syntax-ns#" xmlns:svg="http://www.w3.org/2000/svg" xmlns="http://www.w3.org/2000/svg" xmlns:sodipodi="http://sodipodi.sourceforge.net/DTD/sodipodi-0.dtd" xmlns:inkscape="http://www.inkscape.org/namespaces/inkscape" width="450" height="425" id="svg5624" sodipodi:version="0.32" inkscape:version="0.46" sodipodi:docname="tshirt.svg" inkscape:output_extension="org.inkscape.output.svg.inkscape" version="1.0">
  <defs id="defs5626">
    <filter inkscape:collect="always" id="filter6639" x="-0.18582226" width="1.3716445" y="-0.87864107" height="2.757282">
      <feGaussianBlur inkscape:collect="always" stdDeviation="29.654135" id="feGaussianBlur6641"/>
    </filter>
    <inkscape:perspective sodipodi:type="inkscape:persp3d" inkscape:vp_x="0 : 526.18109 : 1" inkscape:vp_y="0 : 1000 : 0" inkscape:vp_z="744.09448 : 526.18109 : 1" inkscape:persp3d-origin="372.04724 : 350.78739 : 1" id="perspective5632"/>
  </defs>
  <sodipodi:namedview id="base" pagecolor="#ffffff" bordercolor="#adadad" borderopacity="1" gridtolerance="10000" guidetolerance="10" objecttolerance="10" inkscape:pageopacity="0.0" inkscape:pageshadow="2" inkscape:zoom="1" inkscape:cx="128.04375" inkscape:cy="265.38259" inkscape:document-units="px" inkscape:current-layer="layer1" showgrid="false" inkscape:window-width="1440" inkscape:window-height="826" inkscape:window-x="0" inkscape:window-y="26" inkscape:snap-bbox="true" inkscape:snap-nodes="false" inkscape:showpageshadow="false">
    <inkscape:grid type="xygrid" id="grid6270" visible="true" enabled="true"/>
  </sodipodi:namedview>
  <metadata id="metadata5629">
    <rdf:RDF>
      <cc:Work rdf:about="">
        <dc:format>image/svg+xml</dc:format>
        <dc:type rdf:resource="http://purl.org/dc/dcmitype/StillImage"/>
      </cc:Work>
    </rdf:RDF>
  </metadata>
  <g inkscape:label="Layer 1" inkscape:groupmode="layer" id="layer1" transform="translate(-60, -44)">
    <path style="fill: rgb(77, 93, 147); fill-opacity: 1; fill-rule: evenodd; stroke: none; stroke-width: 1px; stroke-linecap: butt; stroke-linejoin: miter; stroke-opacity: 1;" d="M 165.12495,202.30723 C 169.45348,198.49429 214.2109,149.70793 226.94949,178.17681 C 239.39003,205.97957 216.75924,266.93224 182.092,266.37752 C 166.42282,266.12681 157.17222,263.93316 160.56732,246.41062 C 164.97505,223.66175 162.7115,201.13356 165.12495,202.30723 z" id="path6372" sodipodi:nodetypes="csssc"/>
    <path style="fill: rgb(77, 93, 147); fill-opacity: 1; fill-rule: evenodd; stroke: none; stroke-width: 1px; stroke-linecap: butt; stroke-linejoin: miter; stroke-opacity: 1;" d="M 335.67315,372.60005 L 363.68919,432.06648 C 371.22059,441.19284 394.45575,427.00276 410.78072,421.01235 L 378.92574,358.82513 L 335.67315,372.60005 z" id="path5588" sodipodi:nodetypes="ccccc"/>
    <path sodipodi:nodetypes="cscczcc" id="path6360" d="M 188.07147,298.40823 C 180.35556,283.56891 152.64255,304.16303 142.9097,310.04954 C 134.19266,315.32167 96.725525,351.74486 96.121455,364.4842 C 95.517385,377.22356 110.44964,397.84716 127.58934,387.60714 C 127.58934,387.60714 162.04585,352.27149 165.32717,349.51532 C 168.75302,346.63776 191.12555,328.21429 191.12555,328.21429 L 188.07147,298.40823 z" style="fill: rgb(77, 93, 147); fill-opacity: 1; fill-rule: evenodd; stroke: none; stroke-width: 1px; stroke-linecap: butt; stroke-linejoin: miter; stroke-opacity: 1;"/>
    <path style="overflow: visible; marker: none; opacity: 0.362595; fill: rgb(255, 255, 255); fill-opacity: 1; fill-rule: evenodd; stroke: none; stroke-width: 1px; stroke-linecap: butt; stroke-linejoin: miter; stroke-miterlimit: 4; stroke-dashoffset: 0pt; stroke-opacity: 1; visibility: visible; display: inline;" d="M 368.10892,426.70112 C 367.67206,430.83897 365.407,430.10957 363.11998,429.32167 C 357.33379,418.30611 353.75526,408.77895 355.13222,408.05568 C 356.50916,407.3324 362.32272,415.68556 368.10892,426.70112 z" id="path6446" sodipodi:nodetypes="ccsc"/>
    <path style="fill: rgb(89, 104, 154); fill-opacity: 1; fill-rule: evenodd; stroke: none; stroke-width: 1px; stroke-linecap: butt; stroke-linejoin: miter; stroke-opacity: 1;" d="M 153.88837,294.70344 C 153.88837,294.70344 103.99695,293.45264 92.693815,332.10714 C 82.102295,368.32802 93.493465,361.13908 84.287835,366.61779 C 68.791565,375.84033 62.022335,336.07678 78.719295,289.8703 C 95.416255,243.66382 125.23576,205.805 125.23576,205.805 C 125.23576,205.805 141.32757,181.47052 171.84734,187.95924 C 230.57594,200.13237 255.22568,201.18487 298.30118,210.04284 C 325.65327,216.58157 389.80885,246.30269 396.49434,268.37641 C 403.17984,290.45014 411.77431,333.08878 377.83182,370.69586 C 343.88932,408.30294 355.63164,448.82677 350.60337,451.44095 C 345.57509,454.05512 311.46247,458.60773 294.36016,442.03712 C 289.53362,437.36064 314.77831,390.70233 310.30354,388.23821 C 305.82877,385.77411 290.79398,396.78431 255.04584,380.23905 C 219.29772,363.69379 225.18125,355.04602 225.18125,355.04602 C 225.18125,355.04602 210.89287,432.38219 206.40432,435.54784 C 203.30408,437.73435 158.10783,438.61641 159.93173,421.32105 C 163.7713,384.9117 169.11832,356.24812 173.34299,342.87384 C 177.56766,329.49956 168.31636,325.52662 165.65216,317.33067 C 162.98797,309.13471 153.23483,293.44637 153.88837,294.70344 z" id="path6560" sodipodi:nodetypes="cssscccsssssscssssc"/>
    <path style="fill: rgb(46, 52, 54); fill-rule: evenodd; stroke: none; stroke-width: 1px; stroke-linecap: butt; stroke-linejoin: miter; stroke-opacity: 1;" d="M 144.51085,295.06355 C 159.61694,290.45259 171.7383,288.68443 177.59523,275.7971 C 176.39968,289.43084 169.18099,292.29411 155.95118,297.57588 L 153.90194,294.73216 L 144.51085,295.06355 z" id="path6562" sodipodi:nodetypes="ccccc"/>
    <path style="fill: rgb(46, 52, 54); fill-rule: evenodd; stroke: none; stroke-width: 1px; stroke-linecap: butt; stroke-linejoin: miter; stroke-opacity: 1;" d="M 175.71026,265.91744 C 175.71026,265.91744 172.82338,272.07862 178.55721,274.70418 C 184.29106,277.32974 187.28401,273.8756 187.28401,273.8756 C 187.28401,273.8756 184.31411,279.69246 178.05763,277.92159 C 171.80114,276.15071 175.49659,265.78678 175.71026,265.91744 z" id="path6564" sodipodi:nodetypes="cscsc"/>
    <path transform="matrix(0.694421, -0.167129, 0.142551, 0.5923, -315.562, -89.1514)" d="M 555,718 A 16.5,17 0 1 1 522,718 A 16.5,17 0 1 1 555,718 z" sodipodi:ry="17" sodipodi:rx="16.5" sodipodi:cy="718" sodipodi:cx="538.5" id="path6566" style="overflow: visible; marker: none; fill: rgb(46, 52, 54); fill-opacity: 1; fill-rule: evenodd; stroke: none; stroke-width: 1px; stroke-linecap: butt; stroke-linejoin: miter; stroke-miterlimit: 4; stroke-dasharray: none; stroke-dashoffset: 0pt; stroke-opacity: 1; visibility: visible; display: inline;" sodipodi:type="arc"/>
    <path style="fill: rgb(34, 39, 40); fill-opacity: 1; fill-rule: evenodd; stroke: none; stroke-width: 1px; stroke-linecap: butt; stroke-linejoin: miter; stroke-opacity: 1;" d="M 152.87011,223.68891 C 154.24132,225.53332 163.31195,223.89878 170.59972,226.7445 C 179.42757,230.19158 186.27613,233.40631 184.30538,230.46893 C 180.25618,224.43365 157.76656,214.4854 154.86219,217.15 C 151.95783,219.8146 151.30121,223.84454 152.87011,223.68891 z" id="path6568" sodipodi:nodetypes="csssc"/>
    <path sodipodi:type="arc" style="overflow: visible; marker: none; fill: rgb(255, 255, 255); fill-opacity: 1; fill-rule: evenodd; stroke: none; stroke-width: 1px; stroke-linecap: butt; stroke-linejoin: miter; stroke-miterlimit: 4; stroke-dasharray: none; stroke-dashoffset: 0pt; stroke-opacity: 1; visibility: visible; display: inline;" id="path6570" sodipodi:cx="538.5" sodipodi:cy="718" sodipodi:rx="16.5" sodipodi:ry="17" d="M 555,718 A 16.5,17 0 1 1 522,718 A 16.5,17 0 1 1 555,718 z" transform="matrix(0.541939, -0.130431, 0.11125, 0.462242, -210.975, -15.5315)"/>
    <path transform="matrix(0.398077, -0.148737, 0.0523793, 0.40522, -87.6891, 36.8512)" d="M 555,718 A 16.5,17 0 1 1 522,718 A 16.5,17 0 1 1 555,718 z" sodipodi:ry="17" sodipodi:rx="16.5" sodipodi:cy="718" sodipodi:cx="538.5" id="path6572" style="overflow: visible; marker: none; fill: rgb(46, 52, 54); fill-opacity: 1; fill-rule: evenodd; stroke: none; stroke-width: 1px; stroke-linecap: butt; stroke-linejoin: miter; stroke-miterlimit: 4; stroke-dasharray: none; stroke-dashoffset: 0pt; stroke-opacity: 1; visibility: visible; display: inline;" sodipodi:type="arc"/>
    <path sodipodi:type="arc" style="overflow: visible; marker: none; fill: rgb(255, 255, 255); fill-opacity: 1; fill-rule: evenodd; stroke: none; stroke-width: 1px; stroke-linecap: butt; stroke-linejoin: miter; stroke-miterlimit: 4; stroke-dasharray: none; stroke-dashoffset: 0pt; stroke-opacity: 1; visibility: visible; display: inline;" id="path6578" sodipodi:cx="225.625" sodipodi:cy="208.4375" sodipodi:rx="1.875" sodipodi:ry="0.9375" d="M 227.5,208.4375 A 1.875,0.9375 0 1 1 223.75,208.4375 A 1.875,0.9375 0 1 1 227.5,208.4375 z" transform="matrix(0.955306, 0.301762, -0.422467, 1.33743, 34.3097, -99.6256)"/>
    <path style="overflow: visible; marker: none; fill: rgb(89, 104, 154); fill-opacity: 1; fill-rule: evenodd; stroke: none; stroke-width: 1px; stroke-linecap: butt; stroke-linejoin: miter; stroke-miterlimit: 4; stroke-dasharray: none; stroke-dashoffset: 0pt; stroke-opacity: 1; visibility: visible; display: inline;" d="M 377.52966,248.52343 C 412.76935,260.11695 412.90245,327.65501 440.22905,332.82192 C 445.56956,335.70654 444.67481,339.86435 437.7899,340.22724 C 407.86635,335.19703 411.77077,278.34026 385.32211,263.7541 L 377.52966,248.52343 z" id="path6364" sodipodi:nodetypes="ccccc"/>
    <text xml:space="preserve" style="font-size: 108.441px; font-style: normal; font-variant: normal; font-weight: normal; font-stretch: normal; text-align: start; line-height: 100%; text-anchor: start; fill: rgb(46, 52, 54); fill-opacity: 1; stroke: rgb(238, 238, 236); stroke-width: 2; stroke-linecap: butt; stroke-linejoin: miter; stroke-miterlimit: 4; stroke-dasharray: none; stroke-opacity: 0.793991; font-family: Arial;" x="274.49" y="220.544" id="text6437" sodipodi:linespacing="100%" transform="matrix(0.970063, 0.257715, -0.259928, 0.961807, 0, 0)"><tspan sodipodi:role="line" id="tspan6439" x="274.49" y="220.544" style="fill: rgb(46, 52, 54); fill-opacity: 1; stroke: rgb(238, 238, 236); stroke-width: 2; stroke-opacity: 0.793991;">php</tspan></text>
    <path style="overflow: visible; marker: none; opacity: 0.362595; fill: rgb(255, 255, 255); fill-opacity: 1; fill-rule: evenodd; stroke: none; stroke-width: 1px; stroke-linecap: butt; stroke-linejoin: miter; stroke-miterlimit: 4; stroke-dashoffset: 0pt; stroke-opacity: 1; visibility: visible; display: inline;" d="M 190.91369,428.49076 C 187.15681,429.82654 183.56691,429.82654 180.14398,428.49076 C 180.14398,416.04799 182.55639,405.94951 185.52883,405.94951 C 188.50128,405.94951 190.91369,416.04799 190.91369,428.49076 z" id="path6413" sodipodi:nodetypes="ccsc"/>
    <path sodipodi:nodetypes="ccsc" id="path6420" d="M 179.26737,426.61233 C 176.76279,430.22468 174.25821,428.56878 171.75362,426.61233 C 171.75362,414.16956 173.4367,404.07107 175.5105,404.07107 C 177.58429,404.07107 179.26737,414.16956 179.26737,426.61233 z" style="overflow: visible; marker: none; opacity: 0.362595; fill: rgb(255, 255, 255); fill-opacity: 1; fill-rule: evenodd; stroke: none; stroke-width: 1px; stroke-linecap: butt; stroke-linejoin: miter; stroke-miterlimit: 4; stroke-dashoffset: 0pt; stroke-opacity: 1; visibility: visible; display: inline;"/>
    <path style="overflow: visible; marker: none; opacity: 0.362595; fill: rgb(255, 255, 255); fill-opacity: 1; fill-rule: evenodd; stroke: none; stroke-width: 1px; stroke-linecap: butt; stroke-linejoin: miter; stroke-miterlimit: 4; stroke-dashoffset: 0pt; stroke-opacity: 1; visibility: visible; display: inline;" d="M 171.00225,421.72838 C 168.6913,425.18847 167.02524,423.48942 165.36693,421.72838 C 165.36693,409.28561 166.62924,399.18713 168.18459,399.18713 C 169.73993,399.18713 171.00225,409.28561 171.00225,421.72838 z" id="path6422" sodipodi:nodetypes="ccsc"/>
    <path sodipodi:nodetypes="ccsc" id="path6424" d="M 110.02902,379.92661 C 106.08398,379.34761 102.91204,377.66655 100.5131,374.88342 C 106.3397,363.88919 113.20012,356.096 115.82652,357.48793 C 118.45292,358.87984 115.85565,368.93236 110.02902,379.92661 z" style="overflow: visible; marker: none; opacity: 0.362595; fill: rgb(255, 255, 255); fill-opacity: 1; fill-rule: evenodd; stroke: none; stroke-width: 1px; stroke-linecap: butt; stroke-linejoin: miter; stroke-miterlimit: 4; stroke-dashoffset: 0pt; stroke-opacity: 1; visibility: visible; display: inline;"/>
    <path style="overflow: visible; marker: none; opacity: 0.362595; fill: rgb(255, 255, 255); fill-opacity: 1; fill-rule: evenodd; stroke: none; stroke-width: 1px; stroke-linecap: butt; stroke-linejoin: miter; stroke-miterlimit: 4; stroke-dashoffset: 0pt; stroke-opacity: 1; visibility: visible; display: inline;" d="M 102.25577,370.23169 C 98.35402,372.25611 96.912755,369.62214 95.611875,366.72242 C 101.42326,355.72012 107.62794,347.57681 109.46167,348.54535 C 111.29539,349.51392 108.06714,359.2294 102.25577,370.23169 z" id="path6426" sodipodi:nodetypes="ccsc"/>
    <path sodipodi:nodetypes="ccsc" id="path6436" d="M 320.53459,448.85943 C 316.55451,449.09901 313.10591,448.10177 310.18875,445.86773 C 313.64522,433.91467 318.76794,424.88378 321.62338,425.70949 C 324.47884,426.5352 323.99105,436.90638 320.53459,448.85943 z" style="overflow: visible; marker: none; opacity: 0.362595; fill: rgb(255, 255, 255); fill-opacity: 1; fill-rule: evenodd; stroke: none; stroke-width: 1px; stroke-linecap: butt; stroke-linejoin: miter; stroke-miterlimit: 4; stroke-dashoffset: 0pt; stroke-opacity: 1; visibility: visible; display: inline;"/>
    <path style="overflow: visible; marker: none; opacity: 0.362595; fill: rgb(255, 255, 255); fill-opacity: 1; fill-rule: evenodd; stroke: none; stroke-width: 1px; stroke-linecap: butt; stroke-linejoin: miter; stroke-miterlimit: 4; stroke-dashoffset: 0pt; stroke-opacity: 1; visibility: visible; display: inline;" d="M 309.86846,443.81971 C 306.45898,446.59414 304.51296,444.30767 302.65043,441.73247 C 306.1069,429.77942 310.52898,420.54593 312.52116,421.12201 C 314.51333,421.69808 313.32492,431.86665 309.86846,443.81971 z" id="path6438" sodipodi:nodetypes="ccsc"/>
    <path sodipodi:nodetypes="ccsc" id="path6440" d="M 303.28534,436.83203 C 300.10416,439.51398 298.97566,437.41899 297.87182,435.26661 C 301.32827,423.31355 305.34616,413.96317 306.84029,414.39523 C 308.33442,414.8273 306.7418,424.87898 303.28534,436.83203 z" style="overflow: visible; marker: none; opacity: 0.362595; fill: rgb(255, 255, 255); fill-opacity: 1; fill-rule: evenodd; stroke: none; stroke-width: 1px; stroke-linecap: butt; stroke-linejoin: miter; stroke-miterlimit: 4; stroke-dashoffset: 0pt; stroke-opacity: 1; visibility: visible; display: inline;"/>
    <path sodipodi:nodetypes="ccsc" id="path6444" d="M 377.69716,427.18138 C 377.15969,431.54407 374.17235,431.24281 371.04525,430.67546 C 365.25906,419.65989 362.05304,409.93706 363.88897,408.97269 C 365.7249,408.00833 371.91096,416.16582 377.69716,427.18138 z" style="overflow: visible; marker: none; opacity: 0.362595; fill: rgb(255, 255, 255); fill-opacity: 1; fill-rule: evenodd; stroke: none; stroke-width: 1px; stroke-linecap: butt; stroke-linejoin: miter; stroke-miterlimit: 4; stroke-dashoffset: 0pt; stroke-opacity: 1; visibility: visible; display: inline;"/>
    <g id="g6554" transform="matrix(0.996346, -0.0854118, 0.0854118, 0.996346, -415.686, -61.3062)">
      <path sodipodi:nodetypes="cccsscsscc" id="path6386" d="M 623.42224,305.28812 C 619.83357,302.79599 613.36289,299.99704 613.32379,295.57314 L 601.05223,295.06183 C 601.05223,295.06183 601.05223,290.97132 604.63144,290.97132 C 608.21064,290.97132 612.17332,288.6704 614.85772,286.8808 C 617.83581,284.89542 599.51829,283.8129 599.51829,283.8129 C 599.51829,283.8129 599.64426,280.98482 606.31055,280.72949 C 612.70936,280.4844 630.48064,281.31039 631.98317,281.81124 C 635.05106,282.83385 634.79898,296.08446 634.79898,296.08446 L 623.42224,305.28812 z" style="overflow: visible; marker: none; fill: rgb(255, 249, 196); fill-opacity: 1; fill-rule: evenodd; stroke: none; stroke-width: 1px; stroke-linecap: butt; stroke-linejoin: miter; stroke-miterlimit: 4; stroke-dasharray: none; stroke-dashoffset: 0pt; stroke-opacity: 1; visibility: visible; display: inline;"/>
      <path sodipodi:nodetypes="cccsccc" id="path6384" d="M 718.37451,254.9764 L 680.44683,289.34962 L 627.69891,278.11124 L 627.76428,303.32331 C 627.77727,308.33248 684.24275,310.21965 684.24275,310.21965 L 724.1025,286.08359 L 718.37451,254.9764 z" style="overflow: visible; marker: none; fill: rgb(138, 86, 1); fill-opacity: 1; fill-rule: evenodd; stroke: none; stroke-width: 1px; stroke-linecap: butt; stroke-linejoin: miter; stroke-miterlimit: 4; stroke-dasharray: none; stroke-dashoffset: 0pt; stroke-opacity: 1; visibility: visible; display: inline;"/>
      <path sodipodi:nodetypes="cccccccc" id="path5637" d="M 756.45253,331.26181 L 777.49601,278.71603 L 772.44485,253.64604 L 746.81513,247.5258 L 718.6488,254.76368 L 707.72376,274.74636 L 717.0163,337.66263 L 756.45253,331.26181 z" style="overflow: visible; marker: none; fill: rgb(193, 125, 17); fill-opacity: 1; fill-rule: evenodd; stroke: none; stroke-width: 1px; stroke-linecap: butt; stroke-linejoin: miter; stroke-miterlimit: 4; stroke-dasharray: none; stroke-dashoffset: 0pt; stroke-opacity: 1; visibility: visible; display: inline;"/>
      <path sodipodi:nodetypes="csssscc" id="path6410" d="M 704.94148,427.21308 C 704.94148,427.21308 704.59977,442.03946 704.6362,445.58129 C 704.66752,448.62809 659.29703,465.31837 657.8669,454.37992 C 656.43678,443.44146 659.91416,437.22912 663.5416,437.6036 C 667.16905,437.97809 678.10751,436.54795 677.40811,432.60213 C 676.7087,428.65631 681.14122,419.22231 681.14122,419.22231 L 704.94148,427.21308 z" style="fill: rgb(46, 52, 54); fill-opacity: 1; fill-rule: evenodd; stroke: none; stroke-width: 1px; stroke-linecap: butt; stroke-linejoin: miter; stroke-opacity: 1;"/>
      <path sodipodi:nodetypes="csscccc" id="path6525" d="M 722.31242,216.54822 C 722.31242,216.54822 722.56288,206.02896 730.07663,203.77484 C 737.59039,201.52071 753.74267,196.38455 760.39468,200.68339 C 769.56311,206.60845 773.40594,220.80601 773.40594,220.80601 L 756.12431,261.12981 L 719.80784,242.34543 L 722.31242,216.54822 z" style="overflow: visible; marker: none; fill: rgb(255, 249, 196); fill-opacity: 1; fill-rule: evenodd; stroke: none; stroke-width: 1px; stroke-linecap: butt; stroke-linejoin: miter; stroke-miterlimit: 4; stroke-dasharray: none; stroke-dashoffset: 0pt; stroke-opacity: 1; visibility: visible; display: inline;"/>
      <path sodipodi:nodetypes="ccccccccccccccccccccccc" id="path6521" d="M 854.52174,201.63761 L 851.54912,225.92418 L 844.52526,232.37901 L 841.16517,228.21036 L 846.7839,222.68505 L 842.50652,212.25636 L 834.29216,224.56177 L 835.12232,245.17898 L 836.00496,244.06336 L 837.82398,252.17024 L 855.96515,257.41697 L 868.00933,249.70789 L 887.9358,240.44988 L 886.35721,235.11081 L 868.53776,242.29682 L 888.88832,221.5955 L 880.86691,217.76812 L 864.06285,236.36021 L 875.6027,209.16197 L 867.59867,206.00664 L 857.51568,233.83967 L 861.12108,206.17426 L 854.52174,201.63761 z" style="overflow: visible; marker: none; fill: rgb(233, 185, 110); fill-opacity: 1; fill-rule: evenodd; stroke: none; stroke-width: 1px; stroke-linecap: butt; stroke-linejoin: miter; stroke-miterlimit: 4; stroke-dasharray: none; stroke-dashoffset: 0pt; stroke-opacity: 1; visibility: visible; display: inline;"/>
      <path sodipodi:nodetypes="cccccccccccccccccccccc" style="overflow: visible; marker: none; fill: rgb(255, 249, 196); fill-opacity: 1; fill-rule: evenodd; stroke: none; stroke-width: 1px; stroke-linecap: butt; stroke-linejoin: miter; stroke-miterlimit: 4; stroke-dasharray: none; stroke-dashoffset: 0pt; stroke-opacity: 1; visibility: visible; display: inline;" d="M 853.51991,199.63394 L 848.5973,223.25151 L 844.6184,229.85052 L 845.78207,220.68138 L 844.11652,211.98209 L 835.48582,224.75364 L 834.12048,243.17531 L 835.00313,242.05969 L 836.82215,250.16657 L 854.96332,255.4133 L 867.00749,247.70422 L 886.93396,238.44621 L 885.35537,233.10715 L 867.53593,240.29315 L 887.88649,219.59183 L 879.86507,215.76445 L 863.06101,234.35654 L 874.60087,207.1583 L 866.59685,204.00297 L 856.51385,231.83601 L 860.11924,204.17059 L 853.51991,199.63394 z" id="path5710"/>
      <path sodipodi:nodetypes="ccccccc" id="path5701" d="M 757.06247,255.80152 L 805.17951,270.47169 L 831.00798,241.54879 L 862.79843,254.27864 L 806.03578,290.29563 L 757.51545,274.84534 C 746.31322,271.47775 747.67351,261.46804 757.06247,255.80152 z" style="overflow: visible; marker: none; fill: rgb(193, 125, 17); fill-opacity: 1; fill-rule: evenodd; stroke: none; stroke-width: 1px; stroke-linecap: butt; stroke-linejoin: miter; stroke-miterlimit: 4; stroke-dasharray: none; stroke-dashoffset: 0pt; stroke-opacity: 1; visibility: visible; display: inline;"/>
      <path sodipodi:nodetypes="ccccccccsc" id="path6390" d="M 761.60724,324.27334 L 759.27233,356.4364 L 743.85185,368.32599 L 700.64782,378.76223 L 705.82974,426.23763 L 676.5607,429.00703 L 676.36837,373.48836 L 711.80415,342.60841 C 711.80415,342.60841 711.29225,326.74991 713.79684,326.74991 C 716.30142,326.74991 760.60541,323.77242 761.60724,324.27334 z" style="overflow: visible; marker: none; fill: rgb(173, 120, 36); fill-opacity: 1; fill-rule: evenodd; stroke: none; stroke-width: 1px; stroke-linecap: butt; stroke-linejoin: miter; stroke-miterlimit: 4; stroke-dasharray: none; stroke-dashoffset: 0pt; stroke-opacity: 1; visibility: visible; display: inline;"/>
      <path sodipodi:nodetypes="cccc" id="path6533" d="M 733.94983,243.75411 L 741.37916,226.56427 L 741.91046,243.38885 L 733.94983,243.75411 z" style="fill: rgb(235, 225, 135); fill-opacity: 1; fill-rule: evenodd; stroke: none; stroke-width: 1px; stroke-linecap: butt; stroke-linejoin: miter; stroke-opacity: 1;"/>
      <path style="fill: rgb(46, 52, 54); fill-rule: evenodd; stroke: none; stroke-width: 1px; stroke-linecap: butt; stroke-linejoin: miter; stroke-opacity: 1;" d="M 721.96609,215.3554 L 716.47963,225.72743 L 711.68082,231.21611 L 718.49261,229.93187 L 716.28804,237.85159 L 708.41522,249.13757 L 718.015,249.69327 L 714.36677,259.23205 L 714.97624,265.33093 L 719.30719,260.47376 L 718.27219,266.81478 L 711.85011,278.44977 L 720.41269,273.81344 L 721.79719,277.54782 L 726.08799,272.41525 L 728.08667,279.12994 L 731.8789,274.39433 L 731.14402,284.04809 L 739.94761,281.06409 L 745.74721,272.24243 L 745.34774,281.0216 L 754.00967,271.30724 L 754.2718,278.86378 L 761.88252,260.02125 L 765.38419,253.31705 L 768.02564,257.99157 L 766.38608,248.66872 L 771.24405,237.82662 L 774.98885,244.3078 L 774.54495,229.7455 L 773.4979,219.03719 L 770.01237,220.98111 L 768.29139,230.24145 L 765.13837,234.07981 L 764.97764,237.88847 L 763.35626,242.26257 L 757.16198,244.49636 L 747.36401,245.52477 L 744.23122,246.72971 L 741.35385,244.45717 L 737.06855,247.10567 L 734.11619,243.08125 L 731.78758,243.78572 C 730.60261,243.06847 729.31078,243.47828 727.81913,242.76103 L 725.89488,240.37537 L 721.47437,231.18066 L 724.27921,215.85874 L 721.96609,215.3554 z" id="path5718" sodipodi:nodetypes="cccccccccccccccccccccccccccccccccccccccccccccccc"/>
      <path sodipodi:type="arc" style="fill: rgb(32, 74, 135); fill-opacity: 1; stroke: none; stroke-width: 3; stroke-linecap: round; stroke-linejoin: miter; stroke-miterlimit: 4; stroke-dasharray: none; stroke-dashoffset: 0pt; stroke-opacity: 1;" id="path5720" sodipodi:cx="6.4285712" sodipodi:cy="-98.352104" sodipodi:rx="7.8571429" sodipodi:ry="7.8571429" d="M 14.285714,-98.352104 A 7.8571429,7.8571429 0 1 1 -1.4285717,-98.352104 A 7.8571429,7.8571429 0 1 1 14.285714,-98.352104 z" transform="matrix(0.326579, -0.0480832, 0.0478544, 0.32814, 754.005, 265.329)"/>
      <path sodipodi:type="arc" style="fill: rgb(32, 74, 135); fill-opacity: 1; stroke: none; stroke-width: 3; stroke-linecap: round; stroke-linejoin: miter; stroke-miterlimit: 4; stroke-dasharray: none; stroke-dashoffset: 0pt; stroke-opacity: 1;" id="path5722" sodipodi:cx="-58.57143" sodipodi:cy="-123.3521" sodipodi:rx="5" sodipodi:ry="5" d="M -53.57143,-123.3521 A 5,5 0 1 1 -63.57143,-123.3521 A 5,5 0 1 1 -53.57143,-123.3521 z" transform="matrix(0.383709, -0.0564946, 0.0562258, 0.385543, 758.427, 273)"/>
      <path style="fill: rgb(46, 52, 54); fill-opacity: 1; fill-rule: evenodd; stroke: none; stroke-width: 1px; stroke-linecap: butt; stroke-linejoin: miter; stroke-opacity: 1;" d="M 771.9857,221.36774 L 777.88616,220.15552 L 771.78226,223.79218 L 778.7,227.73187 L 771.78226,228.33798 L 777.47921,232.8838 L 769.95108,230.45935 L 771.9857,221.36774 z" id="path5732"/>
      <path style="fill: rgb(255, 249, 196); fill-opacity: 1; fill-rule: evenodd; stroke: none; stroke-width: 1px; stroke-linecap: butt; stroke-linejoin: miter; stroke-opacity: 1;" d="M 735.40755,252.05193 L 723.85245,244.02863 L 725.66732,260.39353 L 739.58153,267.36378 L 744.35992,262.53644 L 750.10706,249.20209 L 735.40755,252.05193 z" id="path5734" sodipodi:nodetypes="ccccccc"/>
      <path style="fill: rgb(46, 52, 54); fill-opacity: 1; fill-rule: evenodd; stroke: none; stroke-width: 1px; stroke-linecap: butt; stroke-linejoin: miter; stroke-opacity: 1;" d="M 762.96549,219.41231 L 753.57342,217.59529 L 741.61472,218.99265 L 748.30131,214.40327 L 761.58278,214.58802 L 762.96549,219.41231 z" id="path5726" sodipodi:nodetypes="cccccc"/>
      <path sodipodi:nodetypes="cccccc" style="fill: rgb(46, 52, 54); fill-opacity: 1; fill-rule: evenodd; stroke: none; stroke-width: 1px; stroke-linecap: butt; stroke-linejoin: miter; stroke-opacity: 1;" d="M 738.47416,217.14525 L 732.12202,212.29637 L 725.87338,211.44221 L 726.07238,215.62995 L 729.67747,214.4509 L 738.47416,217.14525 z" id="path5728"/>
      <g transform="matrix(0.85368, -0.52431, 0.52431, 0.85368, 471.026, 480.311)" id="g6514">
        <path id="path5712" d="M 445.99438,-9.9884991 L 457.30798,-28.220654 L 477.98443,-41.654001 L 496.3443,-24.982933 L 502.46638,-7.9139751 L 483.77112,1.8582549 L 459.56211,0.64925986 L 443.5864,-5.4221701 L 445.99438,-9.9884991 z" style="fill: rgb(193, 125, 17); fill-rule: evenodd; stroke: none; stroke-width: 1px; stroke-linecap: butt; stroke-linejoin: miter; stroke-opacity: 1;"/>
        <path id="path5724" d="M 463.57847,-2.4692021 L 467.84522,-23.033252 L 477.87112,-40.51421" style="fill: none; fill-rule: evenodd; stroke: rgb(143, 89, 2); stroke-width: 5.77506; stroke-linecap: butt; stroke-linejoin: miter; stroke-miterlimit: 4; stroke-dasharray: none; stroke-opacity: 1;"/>
        <path sodipodi:nodetypes="cccccccccccc" id="path5730" d="M 440.93179,-1.9473244 L 441.99795,-9.9663354 L 466.1479,-3.4137154 L 488.47495,-3.6123314 L 504.28817,-10.152361 L 504.09079,3.0999096 L 486.7424,8.110331 L 471.33448,8.516775 L 467.84133,26.720625 L 455.54941,22.914685 L 462.52588,5.6019026 L 440.93179,-1.9473244 z" style="fill: rgb(136, 138, 133); fill-rule: evenodd; stroke: none; stroke-width: 1px; stroke-linecap: butt; stroke-linejoin: miter; stroke-opacity: 1;"/>
        <path transform="matrix(-1.08714, -9.60392e-06, 9.62207e-06, 1.08918, 1079.05, -249.17)" d="M 572.25143,231.7943 A 8.8388348,8.8388348 0 1 1 554.57376,231.7943 A 8.8388348,8.8388348 0 1 1 572.25143,231.7943 z" sodipodi:ry="8.8388348" sodipodi:rx="8.8388348" sodipodi:cy="231.7943" sodipodi:cx="563.4126" id="path5736" style="fill: rgb(136, 138, 133); fill-opacity: 1; stroke: rgb(85, 87, 83); stroke-width: 0.917301; stroke-linecap: round; stroke-linejoin: miter; stroke-miterlimit: 4; stroke-dasharray: none; stroke-dashoffset: 0pt; stroke-opacity: 1;" sodipodi:type="arc"/>
        <path id="path5738" d="M 470.90039,8.4373464 L 469.26766,-0.004884982 L 465.93863,3.9198888 L 463.25864,-1.0166351 L 460.74626,7.0262786" style="fill: none; fill-rule: evenodd; stroke: rgb(238, 238, 236); stroke-width: 1.99634; stroke-linecap: butt; stroke-linejoin: miter; stroke-miterlimit: 4; stroke-dasharray: none; stroke-opacity: 1;"/>
      </g>
      <path style="fill: rgb(255, 249, 196); fill-opacity: 1; fill-rule: evenodd; stroke: none; stroke-width: 1px; stroke-linecap: butt; stroke-linejoin: miter; stroke-opacity: 1;" d="M 739.60645,267.21681 L 730.58396,268.22231 L 732.03462,263.98464 L 727.52993,262.52073 L 726.53733,265.06333 L 725.64349,260.19606 L 739.60645,267.21681 z" id="path5740" sodipodi:nodetypes="ccccccc"/>
      <path style="fill: rgb(238, 238, 236); fill-rule: evenodd; stroke: rgb(83, 78, 44); stroke-width: 1.00183; stroke-linecap: butt; stroke-linejoin: miter; stroke-miterlimit: 4; stroke-dasharray: none; stroke-opacity: 1;" d="M 747.1796,251.52987 L 734.48913,255.04646 L 725.38698,247.63918 L 731.42619,260.50928 L 741.14865,260.53414 L 747.1796,251.52987 z" id="path5742" sodipodi:nodetypes="cccccc"/>
      <path id="path6523" d="M 844.98313,221.25125 L 853.66107,218.24053 L 854.01527,211.51071 L 841.97243,213.28171 L 844.98313,221.25125 z" style="fill: rgb(255, 249, 196); fill-opacity: 1; fill-rule: evenodd; stroke: none; stroke-width: 1px; stroke-linecap: butt; stroke-linejoin: miter; stroke-opacity: 1;"/>
      <path sodipodi:nodetypes="cccccccccccccccccccccccccccc" id="path6529" d="M 724.41142,209.64031 L 728.47594,204.28213 L 732.878,202.83444 L 733.46587,205.23119 L 739.2719,201.72283 L 741.88909,206.06 L 743.92658,202.29769 L 747.89972,201.85579 L 748.93137,205.64818 L 752.88083,204.65434 L 753.69267,207.90829 L 757.47842,205.39259 L 759.32725,210.37309 L 764.17619,209.05996 L 764.36484,213.31437 L 767.70379,213.14042 L 768.85078,217.36708 L 770.44234,216.83073 L 773.30388,219.37027 L 765.99357,203.23647 L 758.27599,198.76033 C 756.68816,198.80155 755.26923,197.2148 753.37859,197.25603 L 748.23994,198.41986 L 752.80749,190.20315 L 743.51915,197.65577 L 733.75997,197.15168 L 724.91233,202.96786 L 724.41142,209.64031 z" style="overflow: visible; marker: none; fill: rgb(46, 52, 54); fill-opacity: 1; fill-rule: evenodd; stroke: none; stroke-width: 1px; stroke-linecap: butt; stroke-linejoin: miter; stroke-miterlimit: 4; stroke-dasharray: none; stroke-dashoffset: 0pt; stroke-opacity: 1; visibility: visible; display: inline;"/>
      <path sodipodi:nodetypes="cccccccc" id="path6535" d="M 733.42227,197.2895 L 732.78977,194.15482 L 737.25885,196.04626 L 737.25885,192.31652 L 740.92104,196.32253 L 745.62957,194.52673 L 743.01372,198.67089 L 733.42227,197.2895 z" style="overflow: visible; marker: none; fill: rgb(46, 52, 54); fill-opacity: 1; fill-rule: evenodd; stroke: none; stroke-width: 1px; stroke-linecap: butt; stroke-linejoin: miter; stroke-miterlimit: 4; stroke-dasharray: none; stroke-dashoffset: 0pt; stroke-opacity: 1; visibility: visible; display: inline;"/>
      <path style="overflow: visible; marker: none; fill: rgb(46, 52, 54); fill-opacity: 1; fill-rule: evenodd; stroke: none; stroke-width: 1px; stroke-linecap: butt; stroke-linejoin: miter; stroke-miterlimit: 4; stroke-dasharray: none; stroke-dashoffset: 0pt; stroke-opacity: 1; visibility: visible; display: inline;" d="M 766.78871,206.17033 L 774.09815,205.19742 L 764.70591,202.71678 L 767.15046,199.89983 L 761.75891,200.52518 L 759.37971,196.08281 L 758.63922,200.92724 L 766.78871,206.17033 z" id="path6539"/>
      <path sodipodi:nodetypes="ccccc" id="path6388" d="M 711.29225,322.00208 L 759.38027,319.98753 L 761.88485,329.25449 L 709.03813,327.23993 L 711.29225,322.00208 z" style="fill: rgb(46, 52, 54); fill-rule: evenodd; stroke: none; stroke-width: 1px; stroke-linecap: butt; stroke-linejoin: miter; stroke-opacity: 1;"/>
    </g>
    <path style="fill: rgb(46, 52, 54); fill-rule: evenodd; stroke: none; stroke-width: 1px; stroke-linecap: butt; stroke-linejoin: miter; stroke-opacity: 1;" d="M 149.83435,243.34069 L 153.1781,233.87194 L 152.08435,240.59069 L 157.14793,233.46569 C 157.14793,233.46569 155.90995,237.51747 156.40995,237.51747 C 156.90995,237.51747 160.53419,233.24618 160.53419,233.24618 L 160.51719,236.501 L 165.51344,232.49634 L 163.00164,236.57113 L 170.38628,234.47155 L 166.72026,237.58373 L 166.95935,238.46569 C 159.48551,235.32524 154.3303,238.55376 149.83435,243.34069 z" id="path5652" sodipodi:nodetypes="ccccscccccccc"/>
    <path style="fill: rgb(46, 52, 54); fill-rule: evenodd; stroke: none; stroke-width: 1px; stroke-linecap: butt; stroke-linejoin: miter; stroke-opacity: 1;" d="M 436.77764,331.96621 L 451.63822,331.74722 L 450.02683,334.15613 L 455.57717,337.22203 L 459.65803,347.7976 L 459.69516,358.84215 L 455.22238,349.36155 L 454.68195,355.33634 L 449.13822,346.04953 L 446.87501,348.46038 L 442.94267,344.35574 L 443.31808,348.70263 L 438.3709,342.57483 L 434.94642,343.57279 L 433.01774,339.19296 L 436.77764,331.96621 z" id="path6496" sodipodi:nodetypes="cccccccccccccccc"/>
    <path sodipodi:nodetypes="csssc" id="path6580" d="M 207.5882,199.13045 C 211.90524,195.89674 251.14928,155.51587 262.00395,181.86328 C 272.60466,207.5942 246.25396,297.7746 213.12805,295.57812 C 198.15556,294.58532 194.14639,293.29889 198.20988,277.63154 C 203.48534,257.29122 205.33496,197.9519 207.5882,199.13045 z" style="fill: rgb(135, 150, 199); fill-opacity: 1; fill-rule: evenodd; stroke: none; stroke-width: 1px; stroke-linecap: butt; stroke-linejoin: miter; stroke-opacity: 1;"/>
    <path id="path6722" d="M 452.33434,76.840688 C 452.33434,76.840688 452.33434,80.090688 449.70934,80.090688 C 447.08434,80.090688 443.20934,78.965688 443.20934,78.965688 L 452.33434,76.840688 z" style="fill: rgb(255, 255, 255); fill-rule: evenodd; stroke: none; stroke-width: 1px; stroke-linecap: butt; stroke-linejoin: miter; stroke-opacity: 1;"/>
  </g>
</svg>