<?xml version="1.0" encoding="UTF-8" standalone="no"?>
<!-- Created with Inkscape (http://www.inkscape.org/) -->
<svg
   xmlns:dc="http://purl.org/dc/elements/1.1/"
   xmlns:cc="http://creativecommons.org/ns#"
   xmlns:rdf="http://www.w3.org/1999/02/22-rdf-syntax-ns#"
   xmlns:svg="http://www.w3.org/2000/svg"
   xmlns="http://www.w3.org/2000/svg"
   xmlns:sodipodi="http://sodipodi.sourceforge.net/DTD/sodipodi-0.dtd"
   xmlns:inkscape="http://www.inkscape.org/namespaces/inkscape"
   width="16"
   height="16"
   id="svg4948"
   sodipodi:version="0.32"
   inkscape:version="0.45+devel"
   sodipodi:docname="geoclue-midgard-16.svg"
   inkscape:output_extension="org.inkscape.output.svg.inkscape"
   inkscape:export-filename="/home/andreas/project/geoclue-midgard-16.png"
   inkscape:export-xdpi="90"
   inkscape:export-ydpi="90"
   version="1.0">
  <defs
     id="defs4950" />
  <sodipodi:namedview
     id="base"
     pagecolor="#ffffff"
     bordercolor="#666666"
     borderopacity="1.0"
     inkscape:pageopacity="0.0"
     inkscape:pageshadow="2"
     inkscape:zoom="22.627417"
     inkscape:cx="7.3858425"
     inkscape:cy="3.0582073"
     inkscape:current-layer="layer1"
     showgrid="true"
     inkscape:grid-bbox="true"
     inkscape:document-units="px"
     inkscape:window-width="1680"
     inkscape:window-height="948"
     inkscape:window-x="0"
     inkscape:window-y="51"
     width="16px"
     height="16px">
    <inkscape:grid
       type="xygrid"
       id="grid4956" />
  </sodipodi:namedview>
  <metadata
     id="metadata4953">
    <rdf:RDF>
      <cc:Work
         rdf:about="">
        <dc:format>image/svg+xml</dc:format>
        <dc:type
           rdf:resource="http://purl.org/dc/dcmitype/StillImage" />
      </cc:Work>
    </rdf:RDF>
  </metadata>
  <g
     id="layer1"
     inkscape:label="Layer 1"
     inkscape:groupmode="layer">
    <path
       style="opacity:1;fill:#e9b96e;fill-opacity:1;stroke:none;stroke-width:1.01900005;stroke-linecap:butt;stroke-linejoin:miter;stroke-miterlimit:4;stroke-dasharray:none;stroke-dashoffset:0;stroke-opacity:1"
       d="M 8.0131109,2.0189283 L 0.97842129,2.0189283 L 1.0135454,8.4177959 L 1.0135454,10.269832 L 1.0162937,12.562582 C 1.0162937,12.809487 1.2173959,13.008174 1.4673054,13.008174 L 3.793793,13.008174 L 5.7346934,13.008174 L 14.546647,13.008174 C 14.796558,13.008174 15.505892,12.809487 15.505892,12.562582 L 15.052131,2.0189283 L 8.9757369,2.0189283"
       id="rect4958"
       sodipodi:nodetypes="cccccccccccc" />
    <path
       style="fill:#8f5902;fill-opacity:1;fill-rule:evenodd;stroke:none;stroke-width:1px;stroke-linecap:butt;stroke-linejoin:miter;stroke-opacity:1"
       d="M 7.1743901,6.7036608 L 6.8992692,7.7550199 L 7.2519097,8.5277499 L 7.9419958,8.5979983 L 8,11.97282 L 10.043613,11.972272 L 11.056568,8.2959214 L 9.7674088,8.2818655 L 9.2031847,7.1696179 L 8.6154515,7.0525376 L 8.6154515,7.2398662 L 8.239302,7.0057055 L 8.239302,6.6568287 L 7.1743901,6.7036608 z"
       id="path5549"
       sodipodi:nodetypes="cccccccccccccc" />
    <path
       style="fill:#8f5902;fill-opacity:1;fill-rule:evenodd;stroke:none;stroke-width:1px;stroke-linecap:butt;stroke-linejoin:miter;stroke-opacity:1"
       d="M 7.1814137,6.7270445 L 8.1197714,5.6475735 L 9.1544073,5.2260843 L 8.7429687,4.6360185 L 8.7453322,5.137116 L 8.2063986,5.14063 L 8.2063328,4.6197271 L 9.2987419,4.123197 L 10.405595,4.5470182 L 12.378621,3.6103754 L 13.461379,3.8913682 L 15,4.3596897 L 15,5.9291662 L 14.014789,6.4671361 L 13.317011,7.7081879 L 12.498927,8.3029172 L 11.512414,7.591107 L 11.2718,8.3404213 L 10.285289,7.1462022 L 10.285289,7.9891805 L 9.3468978,7.1227858 L 9.1784683,6.7012966 L 7.1814137,6.7270445 z"
       id="path5551"
       sodipodi:nodetypes="ccccccccccccccccccccccc" />
    <path
       style="fill:#8f5902;fill-opacity:1;fill-rule:evenodd;stroke:none;stroke-width:1px;stroke-linecap:butt;stroke-linejoin:miter;stroke-opacity:1"
       d="M 11.976281,9.7296658 L 13.750198,9.0012848 L 14.962164,10.45088 L 13.750309,12.008959 L 11.965645,11.165169 L 11.976281,9.7296658 z"
       id="path5561"
       sodipodi:nodetypes="cccccc" />
    <path
       style="fill:#8f5902;fill-opacity:1;fill-rule:evenodd;stroke:none;stroke-width:1px;stroke-linecap:butt;stroke-linejoin:miter;stroke-opacity:1"
       d="M 4.0715863,8 L 6.0614067,7.9875192 L 5,11.975189 L 3.0134088,11.942881 L 3.0397427,9.9053408 L 2.9287582,8.3872539 L 2.8321535,7.7316036 L 1.9387987,6.4203036 L 1.89178,5.8583184 L 1,4.9371717 L 1,3.9722718 L 2.0572075,4.0115328 L 3.4433964,4.828011 L 3.4433964,5.3665809 L 4.0781486,5.834902 L 3.9135833,5.0387557 L 5.0655408,5.7412375 L 5.0655408,6.1158947 L 3.7255085,7.1462022 L 3.3963778,7.7550199 L 4.0715863,8 z"
       id="path5563"
       sodipodi:nodetypes="ccccccccccccccccccccc" />
    <path
       style="fill:#8f5902;fill-opacity:1;fill-rule:evenodd;stroke:none;stroke-width:1px;stroke-linecap:butt;stroke-linejoin:miter;stroke-opacity:1"
       d="M 3.9846101,3.9626097 C 3.9846101,3.9626097 5.3711622,5.0855878 5.5122184,5.0387557 C 5.6532746,4.9919235 6.5936479,4.0786968 6.5936479,4.0786968 L 7.0168164,3.0343657 L 5.9396232,1.9759034 L 3.9752235,2 L 3.9846101,3.9626097 z"
       id="path5565"
       sodipodi:nodetypes="csccccc" />
    <path
       sodipodi:type="arc"
       style="opacity:1;fill:#80837d;fill-opacity:1;stroke:#2e3436;stroke-width:1.18730914999999992;stroke-linecap:round;stroke-linejoin:miter;stroke-miterlimit:4;stroke-dasharray:none;stroke-dashoffset:0;stroke-opacity:1"
       id="path5577"
       sodipodi:cx="22.65625"
       sodipodi:cy="10.78125"
       sodipodi:rx="1.09375"
       sodipodi:ry="1.40625"
       d="M 23.75,10.78125 A 1.09375,1.40625 0 1 1 21.5625,10.78125 A 1.09375,1.40625 0 1 1 23.75,10.78125 z"
       transform="matrix(0.9488494,0,0,0.7476099,-9.9817441,-3.5030837)" />
    <path
       sodipodi:type="arc"
       style="opacity:1;fill:#80837d;fill-opacity:1;stroke:#2e3436;stroke-width:1.25287854999999992;stroke-linecap:round;stroke-linejoin:miter;stroke-miterlimit:4;stroke-dasharray:none;stroke-dashoffset:0;stroke-opacity:1"
       id="path5581"
       sodipodi:cx="22.65625"
       sodipodi:cy="10.78125"
       sodipodi:rx="1.09375"
       sodipodi:ry="1.40625"
       d="M 23.75,10.78125 A 1.09375,1.40625 0 1 1 21.5625,10.78125 A 1.09375,1.40625 0 1 1 23.75,10.78125 z"
       transform="matrix(0.9059922,0,0,0.7031654,-17.069455,-1.119655)" />
    <path
       sodipodi:type="arc"
       style="opacity:1;fill:#80837d;fill-opacity:1;stroke:#2e3436;stroke-width:1.16981006000000010;stroke-linecap:round;stroke-linejoin:miter;stroke-miterlimit:4;stroke-dasharray:none;stroke-dashoffset:0;stroke-opacity:1"
       id="path5583"
       sodipodi:cx="22.65625"
       sodipodi:cy="10.78125"
       sodipodi:rx="1.09375"
       sodipodi:ry="1.40625"
       d="M 23.75,10.78125 A 1.09375,1.40625 0 1 1 21.5625,10.78125 A 1.09375,1.40625 0 1 1 23.75,10.78125 z"
       transform="matrix(0.9631351,0,0,0.758721,-13.321854,0.292311)" />
    <rect
       style="opacity:0.2962963;fill:none;fill-opacity:1;stroke:#ffffff;stroke-width:0.99999994;stroke-linecap:round;stroke-linejoin:miter;stroke-miterlimit:4;stroke-dasharray:none;stroke-dashoffset:0;stroke-opacity:1"
       id="rect4960"
       width="13.060659"
       height="9.923377"
       x="1.4625182"
       y="2.5210102"
       rx="0.051316343"
       ry="0.051572714" />
    <g
       id="g5075"
       transform="matrix(0.8660254,-0.5,0.5,0.8660254,-22.141446,15.978989)" />
    <rect
       style="opacity:1;fill:#ad700f;fill-opacity:1;stroke:none;stroke-width:1.01900005;stroke-linecap:butt;stroke-linejoin:round;stroke-miterlimit:4;stroke-dasharray:none;stroke-dashoffset:0;stroke-opacity:1"
       id="rect5641"
       width="1.0054175"
       height="0.99850458"
       x="8"
       y="2.0235925"
       rx="0.051316343"
       ry="0.051572714" />
    <path
       style="opacity:1;fill:none;fill-opacity:1;stroke:#ad700f;stroke-width:1.01900005000000005;stroke-linecap:butt;stroke-linejoin:miter;stroke-miterlimit:4;stroke-dasharray:none;stroke-dashoffset:0;stroke-opacity:1"
       d="M 5.0328405,13.495477 L 15.037737,13.495477 C 15.305813,13.495477 15.521532,13.279211 15.521532,13.010461 L 15.518584,2.0189739 C 15.518584,1.7502234 15.302865,1.5339598 15.034789,1.5339598 L 9.0618936,1.5339598 M 0.52095272,9.9624338 L 0.52390072,13.010461 C 0.52390072,13.279211 0.73962052,13.495477 1.0076953,13.495477 L 4.0557159,13.495477 M 8.029297,1.5339598 L 1.0047473,1.5339598 C 0.73667252,1.5339598 0.52095272,1.7502235 0.52095272,2.0189739 L 0.52095272,9.0292963"
       id="path5643"
       sodipodi:nodetypes="cccccccccccccc" />
    <rect
       style="opacity:1;fill:#ad700f;fill-opacity:1;stroke:none;stroke-width:1.01900005;stroke-linecap:butt;stroke-linejoin:round;stroke-miterlimit:4;stroke-dasharray:none;stroke-dashoffset:0;stroke-opacity:1"
       id="rect5645"
       width="1.0054175"
       height="0.99850458"
       x="1.0173205"
       y="9.0062723"
       rx="0.051316343"
       ry="0.051572714" />
    <rect
       style="opacity:1;fill:#ad700f;fill-opacity:1;stroke:none;stroke-width:1.01900005;stroke-linecap:butt;stroke-linejoin:round;stroke-miterlimit:4;stroke-dasharray:none;stroke-dashoffset:0;stroke-opacity:1"
       id="rect5647"
       width="1.0054175"
       height="0.99850458"
       x="4.0052037"
       y="11.984602"
       rx="0.051316343"
       ry="0.051572714" />
    <rect
       style="opacity:1;fill:#2e3436;fill-opacity:1;stroke:none;stroke-width:0.99999994;stroke-linecap:round;stroke-linejoin:round;stroke-miterlimit:4;stroke-dasharray:none;stroke-dashoffset:0;stroke-opacity:1"
       id="rect5658"
       width="1.9687495"
       height="5"
       x="1.327673"
       y="14.482768"
       rx="0.9376815"
       ry="0.93768162"
       transform="matrix(0.7071068,-0.7071067,0.7071067,0.7071068,0,0)" />
    <path
       style="fill:none;fill-rule:evenodd;stroke:#2e3436;stroke-width:1px;stroke-linecap:butt;stroke-linejoin:miter;stroke-opacity:1"
       d="M 13.444028,10.617427 L 8.6047659,15.456689"
       id="path5066" />
  </g>
</svg>
