<?xml version="1.0" encoding="UTF-8" standalone="no"?>
<!-- Created with Inkscape (http://www.inkscape.org/) -->
<svg
   xmlns:dc="http://purl.org/dc/elements/1.1/"
   xmlns:cc="http://web.resource.org/cc/"
   xmlns:rdf="http://www.w3.org/1999/02/22-rdf-syntax-ns#"
   xmlns:svg="http://www.w3.org/2000/svg"
   xmlns="http://www.w3.org/2000/svg"
   xmlns:xlink="http://www.w3.org/1999/xlink"
   xmlns:sodipodi="http://sodipodi.sourceforge.net/DTD/sodipodi-0.dtd"
   xmlns:inkscape="http://www.inkscape.org/namespaces/inkscape"
   width="20"
   height="32"
   id="svg2442"
   sodipodi:version="0.32"
   inkscape:version="0.45.1"
   version="1.0"
   sodipodi:docbase="/home/andreas/project/nemein"
   sodipodi:docname="pin2.svg"
   inkscape:output_extension="org.inkscape.output.svg.inkscape"
   inkscape:export-filename="/home/andreas/project/nemein/pin-selected.png"
   inkscape:export-xdpi="90"
   inkscape:export-ydpi="90">
  <sodipodi:namedview
     id="base"
     pagecolor="#ffffff"
     bordercolor="#666666"
     borderopacity="1.0"
     inkscape:pageopacity="0.0"
     inkscape:pageshadow="2"
     inkscape:zoom="11.313708"
     inkscape:cx="40.534515"
     inkscape:cy="21.634178"
     inkscape:current-layer="layer1"
     showgrid="true"
     inkscape:grid-bbox="true"
     inkscape:document-units="px"
     width="20px"
     height="32px"
     showguides="true"
     inkscape:guide-bbox="true"
     inkscape:window-width="1680"
     inkscape:window-height="974"
     inkscape:window-x="0"
     inkscape:window-y="50" />
  <defs
     id="defs2444">
    <linearGradient
       inkscape:collect="always"
       id="linearGradient3465">
      <stop
         offset="0"
         id="stop3467"
         style="stop-color:#000000;stop-opacity:1;" />
      <stop
         offset="1"
         id="stop3469"
         style="stop-color:#000000;stop-opacity:0;" />
    </linearGradient>
    <radialGradient
       id="SVGID_1_"
       r="20.5194"
       gradientTransform="matrix(0.8234869,0,0,0.8234869,-20.382174,1.0554563)"
       cx="55.431599"
       cy="22.938999"
       gradientUnits="userSpaceOnUse">
      <stop
         offset="0"
         id="stop267"
         style="stop-color:#FFC20E" />
      <stop
         offset="0.4424"
         id="stop269"
         style="stop-color:#FEC00F" />
      <stop
         offset="0.6328"
         id="stop271"
         style="stop-color:#FEBB12" />
      <stop
         offset="0.7749"
         id="stop273"
         style="stop-color:#FCB216" />
      <stop
         offset="0.8921"
         id="stop275"
         style="stop-color:#FAA51A" />
      <stop
         offset="0.9942"
         id="stop277"
         style="stop-color:#F8951D" />
      <stop
         offset="1"
         id="stop279"
         style="stop-color:#F7931E" />
    </radialGradient>
    <radialGradient
       inkscape:collect="always"
       id="radialGradient3461"
       r="17.045631"
       gradientTransform="matrix(0.5747605,0,0,0.5627772,-33.713904,-1.2438885)"
       cx="29.079767"
       cy="19.62734"
       gradientUnits="userSpaceOnUse"
       xlink:href="#SVGID_1_"
       fy="19.62734"
       fx="29.079767" />
    <radialGradient
       inkscape:collect="always"
       id="radialGradient3471"
       r="6.75"
       gradientTransform="matrix(0.9185044,0,0,0.3874443,2.190479,27.151096)"
       cx="26.602509"
       cy="45.24157"
       gradientUnits="userSpaceOnUse"
       xlink:href="#linearGradient3465"
       fy="45.24157"
       fx="26.602509" />
    <radialGradient
       inkscape:collect="always"
       id="radialGradient3475"
       r="6.75"
       gradientTransform="matrix(0.9185044,0,0,0.3874443,2.190479,27.151096)"
       cx="26.602509"
       cy="45.24157"
       gradientUnits="userSpaceOnUse"
       xlink:href="#linearGradient3465"
       fy="45.24157"
       fx="26.602509" />
    <radialGradient
       inkscape:collect="always"
       id="radialGradient3156"
       r="10"
       gradientTransform="matrix(1,0,0,1.625,-40,-12.59375)"
       cx="28"
       cy="17.75"
       gradientUnits="userSpaceOnUse"
       xlink:href="#SVGID_1_"
       fy="17.75"
       fx="28" />
    <radialGradient
       inkscape:collect="always"
       id="radialGradient3160"
       r="10"
       gradientTransform="matrix(1,0,0,1.625,4.9999999,-12.71875)"
       cx="28"
       cy="17.75"
       gradientUnits="userSpaceOnUse"
       xlink:href="#SVGID_1_"
       fy="17.75"
       fx="28" />
    <radialGradient
       inkscape:collect="always"
       id="radialGradient3399"
       r="17.045631"
       gradientTransform="matrix(0.341264,0,0,0.3359212,-25.158254,-1.1513891)"
       cx="29.079767"
       cy="19.62734"
       gradientUnits="userSpaceOnUse"
       xlink:href="#SVGID_1_"
       fy="19.62734"
       fx="29.079767" />
    <radialGradient
       inkscape:collect="always"
       id="radialGradient3411"
       r="10"
       gradientTransform="matrix(1,0,0,1.625,4.9999999,-12.59375)"
       cx="28"
       cy="17.75"
       gradientUnits="userSpaceOnUse"
       xlink:href="#SVGID_1_"
       fy="17.75"
       fx="28" />
    <radialGradient
       inkscape:collect="always"
       id="radialGradient3411-31"
       r="10"
       gradientTransform="matrix(1,0,0,1.625,-18,-12.59375)"
       cx="28"
       cy="17.75"
       gradientUnits="userSpaceOnUse"
       xlink:href="#SVGID_1_-614"
       fy="17.75"
       fx="28" />
    <radialGradient
       id="SVGID_1_-614"
       r="20.5194"
       gradientTransform="matrix(0.8234869,0,0,0.8234869,-20.382174,1.0554563)"
       cx="55.431599"
       cy="22.938999"
       gradientUnits="userSpaceOnUse">
      <stop
         offset="0"
         id="stop3438"
         style="stop-color:#ffd810" />
      <stop
         offset="0.4424"
         id="stop3440"
         style="stop-color:#ffd511" />
      <stop
         offset="0.6328"
         id="stop3442"
         style="stop-color:#ffd014" />
      <stop
         offset="0.7749"
         id="stop3444"
         style="stop-color:#ffc618" />
      <stop
         offset="0.8921"
         id="stop3446"
         style="stop-color:#ffb71d" />
      <stop
         offset="0.9942"
         id="stop3448"
         style="stop-color:#ffa620" />
      <stop
         offset="1"
         id="stop3450"
         style="stop-color:#ffa321" />
    </radialGradient>
    <radialGradient
       inkscape:collect="always"
       id="radialGradient3503"
       r="10"
       gradientTransform="matrix(1,0,0,1.625,28,-12.71875)"
       cx="28"
       cy="17.75"
       gradientUnits="userSpaceOnUse"
       xlink:href="#SVGID_1_"
       fy="17.75"
       fx="28" />
    <radialGradient
       inkscape:collect="always"
       id="radialGradient3525"
       r="9.3970766"
       cx="56.656933"
       cy="8.5770874"
       gradientUnits="userSpaceOnUse"
       xlink:href="#SVGID_1_"
       fy="8.5770874"
       fx="56.656933" />
    <radialGradient
       inkscape:collect="always"
       id="radialGradient3411-31-682"
       r="10"
       gradientTransform="matrix(1,0,0,1.625,-18,-12.59375)"
       cx="28"
       cy="17.75"
       gradientUnits="userSpaceOnUse"
       xlink:href="#SVGID_1_-614-738"
       fy="17.75"
       fx="28" />
    <radialGradient
       id="SVGID_1_-614-738"
       r="20.5194"
       gradientTransform="matrix(0.8234869,0,0,0.8234869,-20.382174,1.0554563)"
       cx="55.431599"
       cy="22.938999"
       gradientUnits="userSpaceOnUse">
      <stop
         offset="0"
         id="stop3198"
         style="stop-color:#fff012" />
      <stop
         offset="0.4424"
         id="stop3200"
         style="stop-color:#ffed13" />
      <stop
         offset="0.6328"
         id="stop3202"
         style="stop-color:#ffe716" />
      <stop
         offset="0.7749"
         id="stop3204"
         style="stop-color:#ffdc1b" />
      <stop
         offset="0.8921"
         id="stop3206"
         style="stop-color:#ffcb20" />
      <stop
         offset="0.9942"
         id="stop3208"
         style="stop-color:#ffb824" />
      <stop
         offset="1"
         id="stop3210"
         style="stop-color:#ffb525" />
    </radialGradient>
  </defs>
  <metadata
     id="metadata2447">
    <rdf:RDF>
      <cc:Work
         rdf:about="">
        <dc:format>image/svg+xml</dc:format>
        <dc:type
           rdf:resource="http://purl.org/dc/dcmitype/StillImage" />
      </cc:Work>
    </rdf:RDF>
  </metadata>
  <g
     inkscape:groupmode="layer"
     id="layer1"
     inkscape:label="Layer 1">
    <path
       d="M -12,0.49999997 C -17.244,0.49999997 -21.5,4.7559998 -21.5,10 C -21.5,14.419374 -18.464404,18.127564 -14.375,19.1875 L -11.96875,31.625 L -9.5625,19.15625 C -5.506746,18.073511 -2.5,14.395471 -2.5,10 C -2.5,4.7560002 -6.756,0.49999997 -12,0.49999997 z "
       id="path2174"
       style="opacity:1;fill:url(#radialGradient3156);fill-opacity:1;stroke:#6c5635;stroke-width:0.99999994;stroke-linecap:round;stroke-linejoin:round;stroke-miterlimit:4;stroke-dasharray:none;stroke-opacity:1"
       sodipodi:nodetypes="cscccsc" />
    <path
       d="M 10,0.49999997 C 4.756,0.49999997 0.50000003,4.7559998 0.50000003,10 C 0.50000003,14.419374 3.535596,18.127564 7.625,19.1875 L 10.03125,31.625 L 12.4375,19.15625 C 16.493254,18.073511 19.5,14.395471 19.5,10 C 19.5,4.7560002 15.244,0.49999997 10,0.49999997 z "
       id="path3158"
       style="opacity:1;fill:url(#radialGradient3411-31-682);fill-opacity:1;stroke:#78603b;stroke-width:0.99999994;stroke-linecap:round;stroke-linejoin:round;stroke-miterlimit:4;stroke-dasharray:none;stroke-opacity:1"
       sodipodi:nodetypes="cscccsc" />
    <path
       d="M 5,5.732812 L 5,13.890389 L 6.634545,13.890389 L 6.634545,8.85654 C 6.634545,8.112351 7.259418,7.484165 7.99968,7.484165 C 8.738966,7.484165 9.363349,8.112351 9.363349,8.85654 L 9.363349,13.177658 C 9.363349,13.638721 9.722234,14 10.180866,14 C 10.639007,14 10.997894,13.638721 10.997894,13.177658 L 10.997894,8.85654 C 10.997894,8.112351 11.622276,7.484165 12.362051,7.484165 C 13.102314,7.484165 13.727186,8.112351 13.727186,8.85654 L 13.727186,13.177658 C 13.727186,13.638721 14.086072,14 14.544213,14 C 15.002845,14 15.36222,13.638721 15.36222,13.177658 L 15.36222,8.85654 C 15.36222,7.194157 14.016152,5.841442 12.362051,5.841442 C 11.516664,5.841442 10.746085,6.20518 10.180866,6.822553 C 9.615645,6.20518 8.845555,5.841442 7.99968,5.841442 C 7.520514,5.841442 7.056993,6.004141 6.634545,6.234181 C 6.634545,6.137347 6.634545,5.732812 6.634545,5.732812 L 5,5.732812 z "
       id="path3401"
       style="fill:#6c5635" />
    <path
       d="M 12.362051,6.120143 C 11.455546,6.120143 10.677634,6.554173 10.180866,7.22709 C 9.684096,6.554173 8.906674,6.120143 7.99968,6.120143 C 7.471618,6.120143 6.852125,6.299063 6.357312,6.70311 L 6.357312,6.012007 L 5.277231,6.012007 L 5.277231,13.611195 L 6.357312,13.611195 L 6.357312,8.856048 C 6.357312,7.944244 7.11371,7.20497 7.99968,7.20497 C 8.884182,7.20497 9.640581,7.944244 9.640581,8.856048 L 9.640581,13.177165 C 9.640581,13.481429 9.877719,13.720316 10.180377,13.720316 C 10.482545,13.720316 10.720172,13.481429 10.720172,13.177165 L 10.720172,8.856048 C 10.720172,7.944244 11.47706,7.20497 12.361562,7.20497 C 13.247531,7.20497 14.003928,7.944244 14.003928,8.856048 L 14.003928,13.177165 C 14.003928,13.481429 14.241557,13.720316 14.543725,13.720316 C 14.846382,13.720316 15.08401,13.481429 15.08401,13.177165 L 15.08401,8.856048 C 15.084499,7.357839 13.874359,6.120143 12.362051,6.120143 z "
       id="path3403"
       style="fill:#6c5635" />
    <path
       d="M 9.96875,1.5 C 5.294,1.5 1.500001,5.3079999 1.5,10 C 1.5,14.214399 4.55176,17.705888 8.5625,18.375 L 10,26.5 L 11.4375,18.34375 C 15.416053,17.647671 18.437501,14.191452 18.4375,10 C 18.4375,5.3080001 14.643501,1.5 9.96875,1.5 z "
       id="path3409"
       style="opacity:0.53271028;fill:none;fill-opacity:1;stroke:#ffffff;stroke-width:1;stroke-linecap:round;stroke-linejoin:round;stroke-miterlimit:4;stroke-dasharray:none;stroke-opacity:1" />
    <path
       id="path3505"
       inkscape:export-xdpi="90"
       sodipodi:cx="56.656933"
       sodipodi:cy="8.5770874"
       transform="matrix(1.0641607,0,0,1.0641607,-3.2920814,0.8726007)"
       inkscape:export-filename="/home/andreas/project/nemein/pin-unrelevant.png"
       inkscape:export-ydpi="90"
       d="M 65.584156 8.5770874 A 8.9272232 8.9272232 0 1 1  47.72971,8.5770874 A 8.9272232 8.9272232 0 1 1  65.584156 8.5770874 z"
       sodipodi:type="arc"
       style="opacity:1;fill:url(#radialGradient3525);fill-opacity:1;stroke:#6c5635;stroke-width:0.93970764;stroke-linecap:round;stroke-linejoin:round;stroke-miterlimit:4;stroke-dasharray:none;stroke-opacity:1"
       sodipodi:ry="8.9272232"
       sodipodi:rx="8.9272232" />
  </g>
</svg>
